<svg fill="none" height="64" viewBox="0 0 64 64" width="64" xmlns="http://www.w3.org/2000/svg"><g fill="#000"><path d="m42.7416 15.3616-.7186-3.4633 9.1187-1.5632.7936 3.3417z" fill-opacity=".1"/><path d="m8.79933 21.262-.84022-3.5383 9.18239-1.5575.7243 3.3997z" fill-opacity=".1"/><path d="m19.4669 19.1399c.0334.1552.1093.2794.225.3828s.2502.1796.4054.2379c.1551.0584.3148.0917.4799.1048.1651.013.3166.0088.4451-.0113.452-.0707.8009-.3003 1.043-.6833.0167-.0366.0344-.0685.0436-.0943.0082-.0304.0106-.0648.0015-.1071l-.0238.0037c-.144.2218-.3022.3778-.4726.4773-.1703.0996-.3869.1675-.6485.2084-.119.0186-.2494.0293-.401.0336-.1525-.0005-.3034-.0157-.444-.0521-.1406-.0363-.2662-.0944-.3731-.1797-.1117-.0846-.1808-.2002-.2142-.3554-.0051-.0235-.0074-.0571-.0033-.1064-.0006-.0485.0036-.0977.0172-.1485.0089-.05.0236-.096.0488-.1388.0215-.0374.0507-.0614.084-.0666l.0095-.0015c.0238-.0037.0496.0019.088.0202s.0767.0366.1161.0596c.0404.0277.075.0515.1144.0745s.0672.0381.094.0485c.2683.1038.5452.1334.8306.0887.295-.0461.5415-.1576.7442-.3351.199-.1721.3631-.3921.4943-.6508.0167-.0367.0351-.0881.0525-.1443.0126-.0555.0158-.1094.0056-.1564-.0418.0114-.069.0448-.0911.1017-.027.0577-.0464.1045-.0651.1317-.0862.1253-.2032.2213-.3463.2875-.1479.0668-.2903.1134-.4378.1365-.0333.0052-.0914.0094-.1801.0087-.0924.0048-.1811.0041-.2765-.0053-.0955-.0094-.1825-.0249-.2619-.0514-.0785-.0217-.1256-.0581-.1368-.1098.0809-.0127.1526.0004.214.0346.0567.0348.1046.0516.1474.0449.0286-.0044.0551-.0183.0748-.0408.0197-.0226.029-.0483.0239-.0718-.0061-.0282-.0254-.0495-.059-.0685-.0374-.0136-.0747-.0272-.1206-.0346-.0458-.0074-.0859-.0109-.125-.0096-.0391.0012-.0686.001-.0877.004l-.2616.0409c-.071-.0327-.1375-.0903-.1928-.1643-.06-.0732-.1068-.1534-.1461-.2444-.043-.0856-.0775-.1774-.1015-.266-.0288-.0879-.0508-.1671-.0649-.2329-.0355-.1646-.0481-.3375-.0448-.5276s.047-.3524.1349-.4926c.0187-.0272.0449-.0653.0691-.1128.0252-.0429.0545-.0669.0973-.0736.0143-.0022.0496.002.1002.0087.0459.0074.0975.0187.1491.0301.0527.0161.0995.0282.1416.041.0432.0176.0652.0287.0683.0428l.003.0141c-.0967.1221-.1828.2473-.2479.379-.0688.1371-.087.2809-.0563.4462.0273.127.0629.2235.1124.2935.0447.0708.1163.1519.2157.2482.0685.067.1513.1318.2379.1912.0876.064.1401.1482.1614.2469.006.0282.0074.0572.0087.0861-.0024.0344-.0011.0634.0049.0916l.0619-.0097c.0048-.0007.0197-.0225.0449-.0653.0252-.0429.0477-.0755.0674-.0981.0607-.1067.1098-.2213.1415-.3477.0328-.1218.035-.2485.0067-.3802-.0253-.1175-.0694-.2078-.1389-.2796-.0696-.0717-.1418-.1333-.2179-.1895-.075-.0514-.151-.1076-.2118-.1613-.0655-.0529-.1102-.1237-.1284-.2083-.0102-.047-.007-.101.0046-.1611.0127-.0554.0494-.0903.1113-.1l.5138-.0804c.0143-.0022.037-.0107.0683-.0253.0323-.0099.0541-.023.0673-.0299.1486-.0865.2626-.1966.3494-.3415.0821-.144.101-.3074.0615-.4907-.0091-.0424-.0287-.0879-.0609-.146-.0359-.0527-.0801-.075-.1324-.0668.0071.0329.0179.0604.0325.0824.0098.0228.0206.0502.0267.0784.0213.0988.0022.1698-.0641.2045s-.1394.0607-.2203.0733c-.0904.0142-.1781.0182-.264.0073-.0849-.0062-.1709-.017-.2589-.0373-.0869-.0155-.1701-.0365-.2533-.0575-.088-.0203-.1739-.0312-.2599-.042-.1566-.0193-.2996-.0212-.4311-.0152-.1305.0107-.2647.0268-.4122.0499l-.3092.0484c-.1054.0359-.2135.082-.3301.1343-.1156.0569-.2187.1265-.3102.204s-.1599.1708-.212.2713c-.0511.1052-.0601.2233-.0318.3549.0365.1693.1151.2834.2418.3462.1218.0635.2689.0843.4354.0582.0571-.0089.1112-.032.168-.0651.052-.0325.0983-.0689.1415-.1194s.0711-.1035.0923-.1651c.0222-.0569.0243-.1156.0111-.1767-.0428.0067-.0721.0307-.0877.072-.0205.0421-.042.0795-.0702.1082-.0422.0552-.097.0978-.1548.1263-.0567.0332-.1213.053-.1832.0627-.1094.0171-.2201.0053-.3312-.0308-.111-.0361-.1816-.1126-.2089-.2395-.0162-.0752-.0066-.1448.025-.2032.0317-.0584.0797-.1097.1392-.153.0548-.0426.1211-.0773.1894-.1025.0694-.0206.1339-.0404.191-.0494.0666-.0104.1495-.0136.2477-.0144.0945.0047.1947.0133.2959.0266.0965.0141.194.0329.284.0625.09.0297.1562.0631.2043.1041l.0021.0094c.002.0094-.0252.0429-.0759.1043-.0545.0668-.1175.1398-.1927.2245-.0742.0894-.1473.1834-.2205.2775s-.1321.1859-.1692.2646c-.1524.3203-.1929.6572-.119 1.0004.0213.0987.0568.1952.1114.2888.0545.0935.1128.1816.1797.2635.0193.0213.0627.0631.1187.1175s.0909.1024.099.14c.0071.0329-.0028.0782-.027.1258-.0242.0475-.0436.0943-.0556.1302-.0331.0975-.0393.2054-.015.3182z"/><path d="m23.1903 19.3537.003.0141c.0363.0089.0611.0099.0764.0123.0143-.0022.0381-.0059.0619-.0096.1855-.0291.3439-.0927.4847-.1925.1351-.1038.246-.228.3291-.3674.0821-.1441.1316-.3025.157-.4814.0264-.1743.0195-.3433-.018-.5173l-.2967-1.3776c-.0172-.0799-.0534-.1569-.104-.2316-.0505-.0747-.1085-.1385-.1723-.2063-.0675-.0624-.1282-.116-.1927-.1643-.0635-.0435-.1107-.0799-.15-.1029l-.0809.0127c-.0712.1035-.1358.1913-.1941.2636-.0582.0723-.1391.153-.2381.2414l-.0381.006c-.0047.0007-.0047.0007-.0095.0015-.0037.0054-.0133.0069-.018.0076-.0143.0023-.0201-.0017-.0221-.0111l-.2258-1.0485c-.0253-.1175-.0255-.2099-.0016-.2816.0201-.0664.0949-.1072.2234-.1273l.0071.0329c.005.0235.0053.0478-.0049.0688s-.0252.0428-.0392.0693c-.0139.0265-.0232.0522-.0334.0733-.0092.0257-.0126.0554-.0065.0836.0151.0705.0521.128.104.1636.053.0403.1151.0549.1865.0437.0618-.0097.1186-.0429.1646-.1035.0412-.0599.0576-.1208.0444-.1819-.0311-.1215-.0952-.2136-.198-.2801-.1066-.0611-.2146-.0831-.3336-.0645-.0618.0097-.1397.0365-.2287.0796-.0891.0431-.1714.0948-.2469.1552-.0793.0659-.1432.1342-.1909.2097-.0467.0802-.0638.1607-.0466.2406l.5424 2.564c.0051.0235.0006.0485-.0096.0695l-.0698.1324c-.0103.0211-.0157.0414-.0107.0649-.002-.0094.0258.0057.0873.0398.0567.0349.1202.0784.1931.1204.074.0468.1375.0903.2.1292.0624.0388.0913.0586.096.0578.0048-.0007.0113-.0163.03-.0435.014-.0265.0307-.0632.0474-.0998.0119-.0359.0344-.0686.0511-.1052s.0269-.0577.0392-.0693c.0112-.0163.0282-.0287.0557-.0379.0228-.0084.0493-.0223.0758-.0361.0228-.0085.0446-.0216.0606-.0387s.0224-.0327.0184-.0515l-.0051-.0235c-.003-.0141-.0166-.0314-.0407-.0519-.023-.0159-.0471-.0364-.076-.0562-.0288-.0198-.0529-.0403-.077-.0608-.0241-.0206-.0397-.0473-.0458-.0755l-.2886-1.34c-.0081-.0376.0113-.0844.0593-.1357.0432-.0505.0858-.0814.1286-.0881.0713-.0112.1287.0042.1827.0492.0492.0457.0899.0977.1289.1645.0389.0668.0694.1398.0894.2096.0209.0745.0388.1348.048.1772l.1265.5877c.0578.268.1046.5085.1444.7162.0409.2123.0508.3954.0394.5479-.0162.1532-.067.2826-.1477.3876-.0864.101-.2218.1805-.406.2385-.0143.0022-.0218.0131-.0187.0272z"/><path d="m24.9736 15.4059-.0143.0022c-.0579.0966-.1358.1914-.2338.2845-.1017.0985-.1939.1956-.2804.2966-.0912.1017-.1623.2052-.2172.3158-.0548.1107-.0676.2342-.0392.3658l.1701.7899c.0162.0753.0534.1569.107.2458.0546.0935.1224.1801.2025.255.0763.0804.1601.15.2514.2086.0866.0593.1728.0944.255.1107l.0096-.0014c.019-.003.052-.0325.1047-.0845.0528-.052.1045-.1087.1599-.1708.0555-.0621.1062-.1235.1522-.1842.0422-.0552.0694-.0886.0817-.1003.0282-.0287.0592-.0675.0919-.1213.0327-.0537.0514-.0809.0504-.0856l-.0051-.0235-.0618.0097c-.0405.0403-.0753.0846-.1005.1275-.0299.0435-.0734.0698-.1353.0795-.0238.0037-.0649-.0045-.1148-.0307-.0546-.0255-.1103-.0556-.1623-.0913-.0566-.0348-.1096-.0751-.154-.1217-.0435-.0418-.0716-.0811-.0787-.114l-.0071-.0329c.0599-.0872.1284-.1805.2005-.2793.0732-.094.1396-.1968.2002-.3035.0607-.1066.105-.2205.134-.3368.0291-.1164.0286-.2329.0022-.3552-.0101-.047-.0328-.1066-.0748-.1875-.041-.0762-.0857-.147-.141-.221s-.1123-.1331-.1778-.186c-.0645-.0483-.1229-.0683-.1752-.0601zm-.0324 1.745c-.0318-.1019-.0568-.1952-.0788-.2744-.0219-.0792-.0391-.1591-.0574-.2438l-.0395-.1833c-.006-.0282-.0141-.0659-.0253-.1176-.0149-.0462-.025-.0933-.0304-.141-.0053-.0478-.0097-.0909-.0035-.1307.0024-.0344.0126-.0554.0364-.0592l.0143-.0022c.0523-.0082.1012.0133.1562.0631.0502.0504.0977.111.1414.1771.04.0715.079.1383.1085.2066.0294.0683.0453.1193.0524.1522.0081.0376.0087.0861.0018.1455-.0116.0602-.0232.1203-.0454.1772-.0212.0617-.0443.1139-.0743.1575-.0347.0443-.0687.069-.1068.075-.019.003-.0343.0005-.0496-.002z"/><path d="m28.775 17.6688c.0384.1787.1089.3232.2134.4429.0987.1158.2199.1989.357.2649.1352.0567.2863.0962.4467.11.1545.0098.3108.0048.4678-.0197.3949-.0618.7196-.2438.9657-.5399.0282-.0287.0592-.0676.0854-.1057s.0362-.0834.026-.1305l-.038.006c-.1144.154-.2607.2741-.4283.3635-.1724.0901-.3614.1488-.5612.1801-.138.0216-.2827.0345-.4332.0435-.1563.005-.3024-.011-.443-.0474-.1406-.0363-.2625-.0998-.3657-.1906-.1041-.0955-.1773-.2299-.2148-.4038-.0142-.0659-.0198-.1379-.0123-.2168.0086-.0743.022-.1493.0517-.2171.0296-.0678.0698-.1324.1225-.1844.0528-.052.1153-.0812.1914-.0932.0714-.0111.1363-.0067.2005.0173s.1256.0581.1833.0977c.0587.0443.1174.0885.1714.1336.055.0497.1127.0893.1646.1249.148.0935.3117.1456.4921.1611.1814.0203.3567.0123.5232-.0138.1618-.0253.3222-.0795.4861-.1635.1649-.0793.3047-.1837.4309-.3056.1215-.121.2141-.2619.2768-.4272.0638-.1607.0769-.328.0374-.5113-.0263-.1223-.0716-.2416-.135-.3531-.0634-.1116-.1438-.2108-.2354-.2937-.0906-.0782-.1972-.1393-.314-.1793-.1216-.0393-.2466-.0489-.3846-.0273-.0904.0141-.1682.0409-.244.077-.0748.0409-.1479.0669-.224.0788l-.0381.006c-.0098-.0228-.0179-.0604-.0359-.1208-.0169-.0557-.03-.1168-.0442-.1826-.0179-.0604-.0311-.1215-.0443-.1827-.0169-.0556-.026-.098-.031-.1215l-.0203-.094-.026-.098c-.0112-.0517-.0087-.0861.0035-.0977.0123-.0117.0398-.0209.0826-.0276l.0666-.0104c.2189-.0342.4038-.1117.5491-.2365.1452-.1248.2633-.2842.3496-.4776.0167-.0366.0324-.0779.0395-.1131.0072-.0351.0076-.0789-.0025-.1259-.0143.0022-.0265.0138-.0452.0411-.0235.0279-.0423.0552-.0695.0886-.0262.0381-.0487.0708-.0759.1042s-.0517.0567-.0772.0753l-.1285.0201c-.0904.0141-.1705.0072-.2405-.0207-.0689-.0233-.1304-.0574-.1786-.0985-.0519-.0356-.0896-.0734-.1167-.1081-.0309-.0292-.0492-.0457-.054-.045l-.0095.0015c-.0541.0911-.1093.1775-.1675.2498-.0572.077-.1364.1428-.2272.2008-.1136.0663-.2414.1349-.3798.2003-.1421.0709-.2727.1496-.3907.241-.1181.0913-.2082.1978-.2764.3154-.0671.1223-.0863.2614-.0508.4259.0233.1082.0673.1985.1283.2764.0621.0827.1391.1435.2284.1927s.1841.0782.2911.0954c.1022.0181.2051.0165.3098.0002.0952-.0149.1883-.0392.2784-.0776.0911-.0337.1842-.058.2746-.0721.0095-.0015.0271.0346.0481.1091.022.0792.0507.167.0788.2744.0233.1082.0523.2203.0824.3371.0253.1175.0456.2115.0628.2915l.08.3714c.004.0188.0091.0423.0104.0713.0013.0289.0074.0572.0087.0861.0013.029.0064.0525.0105.0713.0003.0242.0023.0336.0023.0336l-.0092.0258c.001.0047-.0116-.0079-.0282-.0394-.0213-.0306-.0485-.0653-.0719-.1054-.0233-.04-.0457-.0754-.0691-.1155-.0224-.0354-.0417-.0567-.0495-.07-.1119-.1769-.2432-.3071-.4024-.3842-.1592-.0772-.3359-.0981-.5405-.0661-.1475.023-.2851.0689-.412.1422-.1268.0733-.2353.1632-.3255.2696-.0902.1065-.1573.2288-.1965.3661-.0393.1374-.0432.279-.0108.4294zm2.2887-.3337-.075-.0515-.3514-1.6315c-.0101-.047-.0097-.0908.006-.1322.0119-.0359.0412-.0599.0887-.0673.1047-.0164.1937.0086.2707.0694.0733.0663.1354.149.1852.2432.0508.099.0921.1995.1202.3069.028.1074.052.1959.0672.2665.0152.0705.0297.1606.0472.2648.0185.1089.0208.2106.0135.3138-.0121.1039-.0377.1905-.0853.266-.0467.0803-.1205.1258-.2299.1429zm-1.2893-2.4472c-.0061-.0282-.0125-.0806-.0182-.1526-.0104-.0713-.0113-.1441-.0027-.2183.0038-.0735.0182-.1438.0394-.2055.0221-.0569.0636-.0925.116-.1007.0142-.0023.0448.0027.0822.0163.0383.0183.0814.0358.1256.0581.0404.0277.0808.0554.1164.0838.0356.0285.057.0592.0621.0827l.2025.9403c.0061.0282-.0089.05-.046.0607-.0418.0114-.0741.0213-.0979.025-.0808.0127-.1525-.0004-.214-.0345-.0662-.0334-.1259-.0824-.1734-.143-.0474-.0606-.0912-.1267-.1227-.2044-.0304-.073-.0551-.142-.0693-.2079z"/><path d="m32.1558 14.9868c.0139.0416.0281.1074.0531.2007.0212.0987.0435.2022.0726.3143.029.1121.0533.2249.0824.337.0243.1128.0456.2116.0628.2915l.0314.1458c.0243.1128.0493.2061.0703.2806.0219.0792.0551.142.0968.1987.037.0574.0882.1125.1517.1561.0645.0482.1443.0989.2441.1513l.0238-.0037c.0047-.0007.0272-.0334.0731-.094.0412-.06.0909-.1261.1434-.2023.0524-.0762.1011-.147.1402-.2164.0402-.0646.0607-.1066.0576-.1207l-.0238.0037c-.0047.0007-.017.0124-.0462.0364-.0293.024-.051.0371-.0605.0386l-.0096.0015c-.038.0059-.0706-.0084-.1025-.0423s-.0563-.0787-.078-.1336c-.0254-.0495-.0433-.1099-.0612-.1702-.0179-.0604-.0291-.1121-.0382-.1545l-.1357-.63c-.0192-.0893-.0395-.1834-.054-.2734-.0192-.0894-.0394-.1834-.0539-.2735.0126-.0554.0348-.1124.0617-.17.0269-.0577.0549-.1107.0791-.1582l-.0152-.0705-.1569.1849c-.0048.0007-.0241-.0205-.057-.0591s-.0716-.0812-.116-.1277c-.0445-.0465-.0927-.0876-.1398-.1239-.052-.0356-.0951-.0532-.1332-.0472l-.0238.0037c-.0333.0052-.0795.0416-.1387.1092-.0582.0723-.1107.1485-.1668.2302-.0562.0817-.1029.1619-.14.2406-.0372.0787-.0566.1255-.0525.1443.0428-.0067.072-.0307.0867-.0768.0157-.0413.0449-.0653.0925-.0727.0333-.0053.0717.013.1094.0509.0329.0386.06.0732.0708.1007zm-.2062-1.2314c.0203.094.065.1648.138.2068.074.0468.1562.0631.2514.0482.0904-.0141.1499-.0575.188-.1315.0392-.0693.0468-.1483.0296-.2282-.0193-.0893-.0603-.1655-.1258-.2185-.0655-.0529-.1477-.0692-.2428-.0543-.1094.0171-.1785.0619-.2129.1305-.0391.0693-.0457.153-.0255.247z"/><path d="m33.9223 17.3112c.0202.094.0612.1702.1172.2247.055.0497.1232.0925.2016.1142.0737.0225.1559.0388.2399.0403.0839.0014.1658-.0065.2419-.0184.1189-.0186.2338-.0561.3552-.1091.1166-.0522.2196-.1218.3091-.2087s.1569-.1849.207-.2948c.0454-.1092.0533-.232.025-.3636-.0172-.0799-.0545-.1616-.105-.2363-.0553-.074-.0963-.1502-.1182-.2294-.0011-.0047-.0051-.0235-.019-.0651-.0128-.0368-.023-.0838-.0341-.1356-.0159-.0509-.027-.1027-.0439-.1583-.0159-.051-.0261-.098-.0332-.1309l-.0334-.1552c-.0152-.0705-.0344-.1599-.0519-.2641-.0213-.0987-.0436-.2021-.0601-.3016-.0212-.0987-.0415-.1928-.055-.2782-.0124-.0806-.0256-.1418-.0289-.1801-.0125-.0807-.0049-.1596.018-.2361.0191-.0711.0467-.1483.0791-.2263l-.005-.0235-.0269-.0103-.0095.0014c-.0143.0023-.0255.0186-.0395.0451l-.0899.1988c-.0177.0319-.029.0482-.0433.0505-.0237.0037-.0563-.0107-.0977-.0431-.0404-.0277-.0645-.0482-.0818-.0601-.1124-.065-.2122-.1174-.2937-.1533-.0815-.0358-.1888-.0774-.3229-.1293l-.0238.0037c-.0143.0023-.0265.0139-.0415.0357-.0188.0272-.0327.0537-.0467.0802-.0187.0272-.0327.0537-.0466.0802-.014.0265-.0252.0428-.0338.049-.0534.0715-.1164.1446-.1936.2198-.0772.0753-.1449.1491-.2106.2323-.0657.0831-.1151.1735-.1492.2663-.0389.0936-.0462.1968-.0219.3096l.2279 1.0579c.0142.0658.0416.1247.0833.1814s.0919.1071.1459.1521c.0539.0451.1127.0893.1751.1282.0625.0388.1192.0737.1701.1046l.0143-.0022c.038-.006.0652-.0394.0806-.105.0117-.0602.0321-.1022.0519-.1248l.4129-.3659.0258.0057c.0437.1341.1006.2613.1792.3753.0739.1148.1251.2381.1524.365.0314.1458.0102.2755-.0705.3804-.0807.105-.1943.1714-.3465.1952-.0238.0037-.0571.0089-.0962.0102-.039.0012-.0621-.0146-.0692-.0475-.0091-.0423.0008-.0876.0345-.1366.029-.0483.0338-.1171.0166-.1971-.0172-.0799-.0552-.142-.1159-.1957-.0655-.0529-.143-.0699-.2334-.0558s-.1662.0503-.2169.1117c-.0555.0621-.0746.1332-.0553.2225zm.2494-1.2395c-.0108-.0275-.021-.0745-.0409-.1443-.0189-.065-.0341-.1356-.0513-.2155-.021-.0745-.0362-.145-.0514-.2155-.0189-.0651-.029-.1121-.0351-.1403l-.075-.348c-.0091-.0423-.0182-.0846-.0235-.1324-.0102-.047-.0145-.09-.0189-.1331-.0043-.0431-.0067-.0767-.008-.1057-.0003-.0242.0062-.0398.0205-.0421l.0237-.0037c.0524-.0082.1088.0024.1672.0225.0594.0247.1208.0588.1748.1038.054.0451.0984.0916.1391.1435.0417.0567.0671.1062.0772.1532l.2329 1.0814c-.0187.0272-.0391.0693-.0698.1324-.0307.0632-.0722.0988-.134.1085-.0333.0052-.0686.001-.1023-.018-.0336-.0191-.0624-.0389-.0933-.0681s-.0522-.0598-.0746-.0952c-.0214-.0307-.0427-.0614-.0573-.0834z"/><path d="m35.7584 16.1875.0071.0329c.1185.0252.22.0628.3093.112.0846.05.1684.1195.2505.2038l.0238-.0037c.019-.003.0377-.0302.0514-.0809.0136-.0508.0341-.0928.0528-.1201.0102-.021.03-.0435.0572-.077.0292-.024.0565-.0574.0837-.0908.0282-.0287.0565-.0575.08-.0854.0235-.028.0337-.049.0306-.0632-.003-.0141-.0166-.0314-.0359-.0527-.0183-.0165-.0424-.0371-.0685-.067-.0299-.0245-.056-.0544-.0794-.0945-.0224-.0354-.042-.0809-.0542-.1373l-.0628-.2915c-.0232-.1082-.0475-.221-.0691-.344-.0263-.1223-.0507-.2351-.0692-.344s-.0289-.1802-.0333-.2232c-.0013-.029.0011-.0634.0178-.1.0119-.0359.0286-.0725.0549-.1107.0224-.0326.0507-.0613.0789-.0901.0293-.024.0605-.0386.0938-.0438.0667-.0104.1284.048.1891.1697.0558.1225.1073.27.1532.4377.047.1725.0882.341.1209.5157.0328.1748.0563.3071.0756.3965l.0294.1363c.0131.0612.0321.1262.0557.1906.0237.0643.0644.1163.1164.1519l.3537.2265.0142-.0022c-.0057-.0039-.003-.0141.0082-.0304l.0862-.1253c.0102-.021.0167-.0366.0194-.0468l.2622-.3812c.0374-.0545.0511-.1052.0409-.1522l-.0475.0074-.1032.1377c-.0238.0037-.0496-.002-.0737-.0225-.0241-.0206-.0482-.0411-.0695-.0718-.0204-.0259-.0407-.0519-.0526-.0841-.0166-.0314-.0264-.0542-.0314-.0777l-.2603-1.2084c-.0213-.0987-.0167-.1917.0184-.2799.0304-.0873.0665-.1708.1132-.251l-.0183-.0846-.1756.2122c-.0268-.0104-.0624-.0389-.1011-.0814-.0424-.0371-.0811-.0797-.1255-.1262-.0482-.041-.0859-.0789-.1283-.116-.0414-.0324-.0788-.046-.1073-.0415l-.0095.0015c-.0048.0007-.0208.0178-.0405.0403-.0187.0272-.0412.0599-.0684.0933-.0273.0335-.0497.0661-.0685.0934-.0187.0272-.0299.0435-.0337.049-.0207.0178-.0479.0512-.0922.097-.0442.0458-.0884.0916-.1317.1421-.0479.0513-.0884.0916-.1242.1312-.0357.0397-.0612.0582-.0659.059-.0143.0022-.0394-.023-.0811-.0797-.0417-.0566-.0892-.1173-.1387-.1873-.0533-.0645-.1055-.1244-.1567-.1796-.056-.0544-.1002-.0767-.1382-.0707l-.0143.0022c-.0333.0052-.0796.0416-.1293.1077-.0534.0716-.1021.1424-.1487.2226-.0515.0809-.0896.1549-.1203.218-.0344.0686-.0521.1005-.0531.0958l.038-.0059.0728-.0503c.0238-.0037.0449.0027.0727.0178.0241.0205.0482.0411.0675.0624.0204.0259.0407.0519.0563.0786.0108.0275.0207.0503.0237.0644l.2835 1.3165c.0071.0329.0047.0673-.0025.1024-.0072.0352-.0201.0664-.0341.0928-.013.0312-.0269.0577-.0361.0835-.0082.0304-.0137.0507-.0086.0742z"/><path d="m38.1198 15.4873c.0274.0589.0626.1312.1094.2113.0468.0802.099.1401.1577.1843l.3781.2714.0476-.0075c.0617-.1019.1328-.2054.223-.3119.0854-.1057.1634-.2005.2386-.2852l.0238-.0037c.0142-.0022.0478.0168.0913.0586.0434.0418.0878.0884.1391.1435.0464.0559.0909.1024.1353.149.0397.0472.0658.0771.0716.0811l.0258.0057c.0211.0064.0588-.0238.1075-.0946.0497-.0661.0964-.1463.1458-.2366.0446-.0896.0855-.1738.1206-.2619s.0478-.1436.0407-.1765c-.0333.0052-.0551.0183-.0643.0441-.0092.0257-.03.0435-.0537.0473-.0476.0074-.087-.0156-.1192-.0737-.0359-.0527-.0654-.121-.0894-.2096-.0277-.0832-.0527-.1765-.0703-.2806-.0212-.0988-.0415-.1928-.0607-.2821l-.1337-.6207c-.0071-.0329.0018-.0829.0315-.1507.0249-.0671.0508-.1295.0757-.1965l-.0591-.0005-.0987.1126-.0238.0037c-.019.003-.0574-.0153-.1209-.0588-.0624-.0388-.1307-.0816-.2057-.1331-.0798-.0507-.1575-.092-.24-.1325-.0815-.0359-.1484-.0497-.2007-.0415-.0191.0029-.0361.0153-.0558.0378-.0187.0273-.0327.0538-.0514.081-.0177.0319-.0307.0631-.0447.0896-.0139.0265-.0242.0475-.0354.0639-.0854.1057-.1739.1973-.2616.2693-.0915.0775-.1688.1528-.2355.2313-.0667.0784-.1161.1688-.1434.2703-.0321.1022-.0285.2329.0069.3974l.0101.0471c.0051.0235.0162.0752.0362.145.0152.0705.0324.1504.0544.2296.0172.0799.0344.1599.0543.2297.021.0744.0321.1262.043.1536zm.5976-.2393-.241-1.119c-.0101-.047-.0145-.0901-.0188-.1331-.0034-.0384-.0057-.0721-.0023-.1018-.0003-.0242.011-.0406.0252-.0428.0476-.0074.0992.0039.1539.0294s.1066.0611.1595.1014c.0492.0458.0937.0923.1344.1442.0407.052.0708.1007.0942.1408.0071.0329.0203.0941.0433.178l.1229.5251c.0182.0846.0304.141.0375.1739l.0152.0706c.006.0282.0084.0618.0127.1049-.0004.0438-.0066.0836-.0137.1188-.012.0359-.0287.0725-.0474.0997-.0235.028-.0538.0473-.0918.0533-.0476.0074-.0935 0-.1328-.023-.0384-.0183-.0788-.046-.1069-.0853-.0329-.0386-.0611-.078-.0855-.1227-.0234-.0401-.0468-.0802-.0586-.1124z"/><path d="m40.4261 15.4666.0238-.0037c.0286-.0044.0544.0012.0775.0171.0193.0212.0434.0418.0637.0678.0204.0259.0407.0519.0611.0779.0203.026.0444.0465.0675.0623.0126.0126.0509.0309.1114.0604.0614.0341.0998.0524.1123.065l.0857-.0134c.0047-.0007.016-.0171.0347-.0443.0139-.0265.0194-.0468.0184-.0515l.2814-.2919c.0442-.0458.0837-.0908.1147-.1297.0272-.0334.0402-.0646.0361-.0834l-.0071-.0329c-.0333.0052-.0646.0198-.0833.047-.0235.028-.049.0466-.0823.0518l-.019.003c-.0333.0052-.0659-.0092-.1026-.0423-.0414-.0324-.0743-.071-.1082-.1143s-.0583-.0881-.0827-.1329-.0362-.0769-.0403-.0957l-.4891-2.271c-.0132-.0611-.0263-.1223-.0367-.1935-.0152-.0706-.0189-.1332-.0168-.1918.0022-.0587.0111-.1087.0363-.1515.0204-.0421.0592-.0676.121-.0773.0143-.0022.0211.0065.0204.026.0003.0243-.0042.0493-.0124.0797-.0072.0352-.0201.0663-.0273.1015-.0062.0398-.0096.0695-.0045.093.0162.0753.0531.1327.1061.173.0539.045.1208.0589.2017.0462.0904-.0141.1462-.052.1731-.1097.0279-.053.0328-.1218.0156-.2017-.0253-.1176-.0979-.2034-.213-.2583s-.2364-.0699-.3553-.0513c-.0857.0134-.173.0416-.2563.0887-.0881.0478-.1646.1035-.2286.1718s-.1116.1438-.142.2312c-.0351.0881-.0407.1765-.0194.2752l.5448 2.5296c.0091.0423.0077.0814-.009.118-.0167.0367-.0382.0741-.0596.1114-.0263.0382-.0487.0708-.0654.1075-.0167.0366-.0249.067-.0178.1l.002.0094s.0058.0039.0163.0071c.0068.0087.0173.0119.0221.0112z"/><path d="m15.347 30.7272c-.2203.2908-.5533.4729-.9914.5547-.577.1078-1.0904-.1058-1.5551-.658-.4573-.5437-.7981-1.3188-1.017-2.3264-.2335-1.0748-.2363-1.983-.0115-2.714.2227-.7406.6306-1.1664 1.2183-1.2762.3687-.0689.692-.0394.9785.0768l.3169 1.4586c-.3094-.2217-.6218-.3032-.9424-.2433-.3526.0659-.5941.3107-.7202.7537-.1336.4344-.1237.9918.0244 1.6731.1417.6525.3538 1.1422.6423 1.4977.2864.3459.6059.4859.9479.422.3312-.0619.5992-.2618.8091-.6006z"/><path d="m18.4692 27.3675c.4379 2.0152.1332 3.1206-.914 3.3163-1.0151.1897-1.7354-.6943-2.1649-2.6711l-.8424-3.8768.8442-.1578.8465 3.8961c.2356 1.0843.5896 1.5874 1.0651 1.4985.4648-.0868.5799-.6575.3526-1.7035l-.859-3.9536.8441-.1578z"/><path d="m23.0502 29.5372-.967.1807-.9577-1.6185c-.0719-.1263-.1397-.2335-.2-.3321-.0604-.0985-.1219-.1769-.1792-.2361-.0541-.0698-.1094-.1194-.1658-.1488-.0511-.0304-.1033-.0406-.1567-.0306l-.2244.0419.5587 2.5718-.8441.1578-1.4596-6.7174 1.3357-.2495c.9083-.1698 1.4938.3499 1.7586 1.5686.0522.24.0767.4551.083.6636.0011.2095-.0148.3922-.0542.5693-.0414.1675-.0956.3274-.1774.4626-.0765.1341-.1753.2424-.2836.3325l.0042.0192c.0596.0188.1256.0664.1936.1236s.1349.1346.2038.2216c.0669.0773.1379.1739.2036.2715.071.0966.1313.1951.1917.2937zm-3.5056-5.1566.4066 1.8712.3633-.0679c.1817-.0339.3051-.1568.3756-.3697.0726-.2033.0739-.4532.0134-.7315-.1272-.5854-.3895-.8459-.7795-.773z"/><path d="m26.5404 28.8857-.9671.1807-.9576-1.6185c-.072-.1263-.1397-.2335-.2001-.3321-.0603-.0985-.1218-.1769-.1791-.2361-.0541-.0698-.1094-.1194-.1658-.1488-.0511-.0304-.1033-.0406-.1568-.0306l-.2244.0419.5588 2.5718-.8441.1577-1.4596-6.7173 1.3357-.2496c.9083-.1697 1.4938.35 1.7586 1.5687.0521.2399.0766.455.083.6635.0011.2095-.0148.3923-.0542.5694-.0414.1675-.0956.3274-.1775.4625-.0765.1342-.1752.2425-.2835.3326l.0041.0192c.0597.0188.1257.0664.1937.1236s.1349.1346.2038.2215c.0668.0774.1379.174.2035.2716.0711.0965.1314.1951.1917.2937zm-3.5056-5.1567.4066 1.8713.3633-.0679c.1817-.034.3051-.1569.3756-.3698.0726-.2033.0739-.4531.0134-.7314-.1272-.5854-.3895-.8459-.7795-.7731z"/><path d="m29.1339 28.4004-2.244.4193-1.4596-6.7173 2.1585-.4034.2669 1.2283-1.3143.2456.3253 1.497 1.2235-.2286.2668 1.2283-1.2235.2286.3336 1.5354 1.3999-.2615z"/><path d="m33.0983 27.6593-.8495.1588-2.4615-3.9338c-.145-.2326-.2434-.4039-.3079-.5217l-.0107.002c.0681.2369.1506.591.257 1.0804l.8027 3.6945-.7961.1488-1.4595-6.7173.9083-.1698 2.3735 3.8105c.1091.1693.2075.3407.3059.512l.0107-.002c-.0494-.1505-.1215-.4566-.2216-.9172l-.8069-3.7137.7961-.1488z"/><path d="m35.3934 21.5197-1.0685.1996 1.1926 5.4891-.8441.1577-1.1927-5.489-1.0632.1986-.2669-1.2283 2.976-.556z"/><path d="m39.4278 19.4869.2544 1.1707-.3099.0579.9508 4.3759.3099-.0579.2544 1.1707-1.4693.2746-.2544-1.1708.3152-.0589-.9507-4.3758-.3153.0589-.2543-1.1708z"/><path d="m41.2013 25.8766-.3252-1.497c.1996.2023.4007.3345.602.4167.2014.0822.3955.1059.5772.0719.1068-.02.1935-.0561.2674-.0999.0718-.0533.1255-.1133.1664-.1809.0409-.0675.0616-.1513.0696-.2426.01-.0818-.0002-.1798-.021-.2757-.0271-.1248-.0735-.2359-.1338-.3345-.0657-.0976-.1453-.1826-.2336-.2559-.0935-.0724-.1978-.1428-.3106-.2016-.1203-.0674-.2438-.1242-.3748-.1896-.3418-.1658-.6193-.3936-.8323-.6833-.2131-.2897-.3639-.651-.4619-1.102-.075-.3455-.1043-.6595-.0784-.924s.0816-.4946.185-.6837c.0982-.1881.2281-.3322.3877-.4419.165-.1107.3436-.184.5413-.221.1924-.0359.3729-.0497.5329-.0296.1579.0104.3114.0516.4584.114l.3044 1.4011c-.0808-.0648-.1648-.119-.2542-.1722-.0873-.0436-.1725-.0776-.2557-.102-.0885-.0234-.1749-.0373-.2538-.0425-.0843-.0042-.1559-.0008-.2253.0122-.0962.0179-.1829.0541-.2514.0969-.0718.0533-.1276.1037-.1664.1809-.0409.0675-.0691.1427-.0824.235-.01.0818-.0052.1808.0177.2863.0251.1152.0619.2081.1128.2885.0529.09.1176.1578.2005.2321.0755.0658.167.1286.2691.1894.1022.0608.2204.1186.346.185.1746.0872.3332.1774.4832.2792.1447.1028.2774.2278.3984.3749.1188.1376.2225.3079.3165.5101.0865.1935.16.4294.2184.6981.0813.3742.1127.6979.0889.972-.0259.2645-.0869.4955-.1871.674-.1035.1891-.2355.3236-.4026.4248-.1596.1097-.3457.1744-.5434.2113-.2083.039-.4069.0461-.6085.0139-.1995-.0226-.3807-.0886-.5414-.1884z"/><path d="m44.1952 25.3168-.3253-1.497c.1996.2024.4007.3346.602.4168.2014.0822.3955.1058.5772.0719.1069-.02.1935-.0562.2674-.0999.0718-.0534.1255-.1133.1664-.1809s.0616-.1513.0696-.2427c.01-.0817-.0001-.1797-.021-.2757-.0271-.1247-.0735-.2359-.1338-.3344-.0657-.0976-.1453-.1826-.2335-.256-.0936-.0724-.1979-.1428-.3107-.2016-.1203-.0673-.2438-.1242-.3748-.1896-.3418-.1658-.6192-.3935-.8323-.6832-.2131-.2898-.3638-.651-.4618-1.102-.0751-.3455-.1044-.6596-.0785-.924.0259-.2645.0816-.4946.185-.6837.0982-.1881.2281-.3322.3877-.4419.165-.1107.3437-.1841.5413-.221.1924-.0359.3729-.0497.5329-.0297.1579.0105.3114.0517.4584.1141l.3045 1.401c-.0808-.0648-.1649-.119-.2543-.1721-.0873-.0436-.1725-.0777-.2557-.1021-.0884-.0234-.1748-.0372-.2538-.0424-.0843-.0042-.1559-.0008-.2253.0121-.0962.018-.1829.0542-.2514.0969-.0718.0534-.1276.1038-.1664.1809-.0409.0676-.0691.1428-.0824.2351-.01.0818-.0052.1807.0178.2863.025.1151.0619.2081.1127.2885.0529.0899.1177.1577.2005.2321.0755.0658.167.1286.2691.1894.1022.0608.2204.1186.346.185.1746.0872.3332.1774.4832.2792.1447.1028.2775.2277.3984.3749.1188.1376.2226.3079.3165.51.0866.1936.1601.4295.2184.6982.0814.3742.1128.6979.0889.972-.0259.2644-.0869.4955-.1871.674-.1035.1891-.2355.3236-.4025.4247-.1597.1097-.3458.1745-.5435.2114-.2083.0389-.4069.0461-.6085.0139-.1995-.0227-.3807-.0887-.5413-.1885z"/><path d="m49.8348 21.5066c.4379 2.0152.1332 3.1206-.914 3.3163-1.0151.1897-1.7353-.6943-2.1649-2.6711l-.8423-3.8769.8441-.1577.8466 3.896c.2356 1.0844.5895 1.5875 1.065 1.4986.4649-.0868.5799-.6576.3526-1.7035l-.859-3.9537.8442-.1577z"/><path d="m53.5236 23.843-2.244.4193-1.4595-6.7173 2.1585-.4033.2669 1.2283-1.3144.2456.3253 1.497 1.2235-.2286.2669 1.2283-1.2235.2286.3336 1.5354 1.3998-.2616z"/><g clip-rule="evenodd" fill-rule="evenodd"><path d="m51.1519 9.01226c.4463-.07374.8809.1912 1.005.63396 1.4431 5.14928 3.5263 12.64868 5.2301 18.92858.8519 3.1398 1.6093 5.9758 2.1444 8.0611.2675 1.0424.48 1.8989.621 2.5126.0704.3064.1237.5551.1571.7372.0167.0906.0291.1685.0361.2305.0035.0309.006.0616.0066.09.0005.0223.0007.0664-.012.1124-.0332.1209-.0598.2649-.0914.4364-.01.0541-.0204.1109-.0318.1706-.0457.2405-.1033.5126-.196.7832-.1865.5446-.5229 1.1038-1.212 1.4103-.0838.0373-.2806.0931-.5448.1621-.2758.072-.6525.1651-1.1185.2767-.9322.2234-2.2269.5225-3.7982.8789-3.1429.7129-7.3957 1.6562-12.0772 2.6849-9.3631 2.0575-20.4423 4.4568-27.7883 6.0386l-.4173.0898.0046-.0159c-.0851.0354-.1842.0223-.2579-.0368l-.5388-.4327c-.0439-.0352-.0749-.084-.0883-.1386l-8.1843-33.5037.49652-.1213 2.26601 9.2762-2.18998-9.1049c-.01764-.0734-.00199-.1508.04278-.2115.04476-.0607.11406-.0985.18934-.1033l.78021-.0501-.19887-.9153c-.01258-.0578-.00466-.1183.02241-.171l.31514-.6134c.04907-.0955.15257-.1502.25904-.1368.09815-.3095.36213-.556.70732-.613zm-42.01985 23.71294 4.03365 18.5636.0389-.2287zm1.82285 10.7963-5.28681-24.331.00791.1233-.53546.0344zm2.7584 7.4715-.3528-1.5883.3609 1.5599zm.0784 1.5777c7.3434-1.5817 18.1824-3.9295 27.3689-5.9482 4.6811-1.0286 8.9327-1.9716 12.0738-2.6842 1.5707-.3563 2.863-.6547 3.7922-.8774.4648-.1114.8376-.2035 1.1085-.2743.2826-.0737.4299-.1183.4662-.1345.513-.2282.7762-.6419.9361-1.1089.0806-.2352.1329-.4784.1775-.713.0095-.0502.0188-.1009.0281-.1514.0308-.1669.0611-.3319.0978-.4712-.0005-.0079-.0014-.019-.0031-.0341-.0051-.0449-.0151-.1096-.0309-.1955-.0314-.1709-.0827-.411-.1526-.715-.1395-.6073-.3507-1.4588-.6179-2.5-.5342-2.0819-1.2908-4.9151-2.1426-8.0543-1.7033-6.2781-3.7861-13.776-5.229-18.92455-.0517-.18462-.233-.30007-.4295-.26761l-44.46196 7.34566c-.21836.0361-.36089.2491-.31099.4647l7.78705 33.6515z"/><path d="m55.081 27.939-5.9912 1.2703 1.1075 5.2236 5.9912-1.2702zm.019-.5265c.2071-.0439.4106.0884.4545.2955l1.1605 5.4737c.0439.2071-.0884.4106-.2955.4545l-6.2412 1.3232c-.2071.0439-.4106-.0884-.4545-.2955l-1.1605-5.4736c-.0439-.2072.0884-.4106.2955-.4546zm-24.181 4.8283-16.9186 3.587 2.7428 12.9371 16.9186-3.587zm.019-.5265c.2071-.0439.4106.0884.4545.2955l2.7959 13.1871c.0439.2071-.0884.4106-.2955.4545l-17.1686 3.64c-.2072.0439-.4107-.0884-.4546-.2955l-2.7958-13.1871c-.0439-.2071.0884-.4106.2955-.4545z"/><path d="m47.9522 28.9095-15.5534 3.2365-.026-.1251 15.5534-3.2365zm.2093.5317-15.5533 3.2365-.0261-.1251 15.5534-3.2365zm.0821.5204-15.5534 3.2366-.026-.1251 15.5533-3.2366zm.0707.6478-15.5533 3.2365-.0261-.1251 15.5534-3.2365zm.2094.5317-15.5534 3.2365-.026-.1251 15.5533-3.2365zm.082.5204-15.5534 3.2365-.026-.1251 15.5534-3.2365zm.0594.775-15.5533 3.2365-.026-.1251 15.5533-3.2365zm.2094.5317-15.5534 3.2365-.026-.1251 15.5533-3.2365zm.082.5205-15.5533 3.2365-.0261-.1251 15.5534-3.2365zm8.1459.7236-23.2664 4.8604-.0261-.125 23.2664-4.8605zm-8.0751-.0759-15.5534 3.2365-.026-.1251 15.5533-3.2365zm8.1459.7236-23.2664 4.8605-.0262-.1251 23.2664-4.8605zm-7.9366-.1919-15.5534 3.2365-.026-.1251 15.5534-3.2365zm8.1459.7237-23.2664 4.8604-.0261-.1251 23.2664-4.8604zm-8.0639-.2033-15.5533 3.2365-.026-.1251 15.5533-3.2365zm8.2732.735-23.2664 4.8604-.0261-.1251 23.2664-4.8604zm.0708.6477-23.2664 4.8604-.0261-.1251 23.2663-4.8604zm.082.5204-23.2664 4.8605-.0261-.1251 23.2664-4.8605zm.198.659-23.2663 4.8605-.0262-.1251 23.2664-4.8604z"/><path d="m52.9632 28.85.001.003c.0049.0153.0097.03.014.043.0045.0139.0088.0265.0124.0365.0018.005.0036.0098.0053.0141.0012.003.004.0098.008.0162.0041.0064.0063.0129.0087.0244.0003.0018.0008.0042.0013.007.0021.0114.0054.0295.0111.0461.0221.0651.0496.1291.0757.1896.012.0281.0238.0553.0345.0816.035.0858.0623.1676.0704.255.0034.0371.0166.0771.0317.1147.0154.0385.035.0794.0542.1187.0023.0048.0046.0095.0069.0142.0374.0768.0701.1438.0814.1939.0168.0738.0431.143.0678.2075l.0009.0024c.0253.0666.0488.1286.0636.1938.0017.0073.0057.0202.0093.032.0007.0021.0013.004.0019.0059.0047.0154.01.0329.0143.0492.0046.0174.007.0294.0075.0352 0-.0001 0 0 0 0l-.0033.0017c.1551.3278.3743.7042.5924 1.0095.0359.0503.0791.0967.1193.1396l.0054.0056c.0392.0419.0756.0806.1062.1212.0506.0672.0915.1412.1349.2197.0092.0166.0184.0333.0279.0502.0533.0952.1129.1942.1966.278.009.009.0268.0253.0478.0446.0052.0048.0106.0097.0161.0148.0288.0264.0629.058.0952.0895.0119.0116.0234.0231.0342.0341-.0313-.005-.1247-.0321-.2238-.0649-.049-.0162-.0974-.0331-.1368-.0479-.0415-.0157-.0678-.0272-.0767-.0325.0002.0001-.024-.0147-.0495-.0279-.0123-.0064-.0274-.0137-.0412-.0186-.0064-.0023-.0164-.0055-.0274-.0065-.0056-.0006-.015-.001-.0259.0018-.0116.003-.0282.0105-.0399.0281-.0166.0249-.0096.0495-.0081.0545.0024.0079.0058.0137.0072.0161.0033.0055.007.0099.009.0123.0046.0054.0104.0113.0158.0168.0114.0113.0265.0253.0413.0388.015.0137.0304.0274.0427.0383.0057.0051.0106.0094.0144.0128.0046.0041.0078.0069.0091.008.0203.0185.1229.1126.2211.2059.042.0399.0828.0793.1161.1126-.0925-.0284-.1867-.0587-.2795-.0888-.0375-.0122-.0783-.0192-.1135-.0253-.0096-.0016-.0188-.0032-.0274-.0048-.0433-.0081-.0777-.0172-.1066-.0344-.0178-.0107-.0748-.0393-.1253-.063-.0258-.0121-.0516-.0237-.0717-.0318-.0096-.004-.0198-.0078-.0286-.0103-.0037-.0011-.011-.0031-.0194-.0037-.0036-.0002-.0131-.0008-.0244.0025-.0123.0036-.0365.0155-.0445.0456-.0052.0192.0001.0348.0013.0384.002.0059.0044.0106.0059.0132.0031.0056.0066.0106.0093.0143.0056.0077.0128.0164.0194.0242.0068.008.0141.0162.0202.0232.0013.0015.0026.0029.0038.0043.0045.0051.0079.0089.0101.0115.0677.0794.1468.1483.2211.2129.0701.0611.1359.1184.1916.1809-.0508-.0177-.11-.0401-.1701-.0638-.0738-.0292-.1482-.0602-.2085-.0865-.062-.0271-.105-.0475-.1194-.0561-.0142-.0084-.0289-.0118-.0379-.0134-.0098-.0018-.0198-.0026-.0269-.0033l-.0024-.0002c-.0069-.0006-.0117-.001-.016-.0016-.0022-.0003-.0035-.0006-.004-.0007-.1027-.0429-.2106-.0637-.3108-.0816-.0086-.0015-.0171-.003-.0256-.0045-.0929-.0165-.1778-.0315-.2555-.0593-.0143-.0051-.0286-.0051-.0356-.005-.009.0001-.0188.001-.0284.0022-.0195.0025-.0433.0068-.0692.0123-.052.0109-.1168.0271-.1811.0446-.0645.0175-.1293.0365-.1816.0532-.0261.0083-.0495.0162-.0684.0231-.0171.0063-.0352.0134-.0474.0206-.0627.0367-.114.0857-.1555.1287-.0133.0138-.0252.0265-.036.038-.0255.0272-.045.048-.0637.0627l.0025.0033c-.0102.0076-.0207.0154-.0316.0232-.044.0321-.0907.0646-.1303.0922l-.0043.003c-.0367.0256-.069.0481-.0845.0603-.02.0158-.1065.0918-.1853.1614-.0011.0009-.0022.0019-.0033.0029.0279-.0723.0585-.1438.0766-.1861.0063-.0147.0111-.0259.0138-.0324.0113-.0278.0133-.0601.0145-.0799.0001-.0014.0001-.0027.0002-.0039.0008-.0118.0014-.0204.0024-.0278.0011-.0073.0022-.0098.0021-.0097.0023-.0048.0045-.0114.0052-.0136.0014-.0041.0032-.0098.0051-.0158.0038-.012.0086-.0273.0132-.0425.0045-.015.009-.0304.0122-.0422.0016-.0057.0031-.0115.0041-.0165.0004-.0019.0013-.0062.0018-.0109.0001-.0016.0008-.0088-.0006-.0173-.0005-.0034-.0028-.0165-.013-.0294-.0059-.0075-.0151-.0157-.0283-.0205-.0133-.0048-.0261-.0045-.0361-.0023-.0146.0034-.0271.0103-.0353.0155-.0091.0057-.0184.0127-.0273.0199-.018.0147-.0384.0337-.0599.055-.0432.0426-.0948.0983-.1464.1544-.0103.0112-.0206.0224-.0309.0335-.0202.0221-.0403.044-.0598.0651.0034-.0112.0061-.0222.008-.0329.0207-.1175.0862-.2361.1655-.3637.0137-.022.0278-.0442.0421-.0668.066-.1042.1356-.2141.1808-.3247.0036-.0087.0231-.0572.04-.1044.0083-.0233.0165-.048.0217-.0678.0024-.0093.0051-.0208.006-.0316.0004-.0048.001-.0148-.0017-.0261-.0023-.0097-.0129-.0418-.0501-.0502-.0156-.0035-.0285-.0007-.0351.0012-.0073.002-.0133.0049-.0174.007-.0081.0044-.0156.0097-.0214.0141-.0119.0091-.0255.0211-.0375.0317l-.0039.0035c-.0114.01-.0221.0195-.032.0276-.0055.0045-.0101.0081-.014.0108-.0019.0014-.0034.0024-.0046.0031-.001.0007-.0015.0009-.0016.001-.0924.0454-.182.0956-.2704.1461-.015.0085-.03.0171-.045.0257-.0567.0324-.113.0646-.17.0959.0273-.0628.0714-.133.1229-.2079.0218-.0318.0457-.0653.0697-.0991.0334-.0469.0671-.0943.0962-.138.0378-.0568.0626-.1156.0834-.172.0083-.0227.0156-.0439.0227-.0645.0115-.0334.0225-.0651.0362-.0986.0126-.031.0255-.0618.0384-.0926.0998-.2391.1993-.4775.1854-.757-.0002-.0043-.0004-.0087-.0007-.0132-.003-.062-.0063-.1319-.0252-.2013l-.0039.0011c-.0002-.0028-.0003-.0058-.0005-.0088-.001-.0183-.003-.0434-.0054-.0727-.0041-.0496-.0099-.1129-.0159-.1791-.0011-.0121-.0023-.0243-.0034-.0366-.0072-.0793-.0144-.16-.0195-.2251-.0025-.0325-.0045-.0608-.0057-.0829-.0006-.011-.0009-.0202-.0011-.0274 0-.0035 0-.0064 0-.0086l.0001-.0027c.0292-.3555.0721-.6892.163-1.0304.0068-.0257.0168-.0662.0271-.1082.0141.0391.0268.0763.0355.1016.0038.0113.0068.0202.0088.0258.0466.132.1003.2691.1589.3971.0157.0343.0351.0662.0518.0936.005.0082.0098.0161.0141.0234.02.034.0348.0636.0425.0974.0079.0351.0218.0801.0406.1083.005.0074.0133.0184.026.0271.0141.0096.039.0193.0673.0085.0004-.0002.0007-.0003.0011-.0004.0074-.001.0126-.003.0143-.0037.006-.0023.0105-.005.0124-.0062.0041-.0027.0071-.0053.0084-.0064.003-.0026.0057-.0053.0076-.0073.0079-.0082.0193-.0217.031-.0368.0118-.0153.0253-.0341.0368-.0532.0105-.0174.0231-.0412.028-.0651.015-.0739.0372-.1468.0616-.2222.0043-.0135.0087-.027.0132-.0407.0202-.0619.041-.126.0583-.1909.018-.0674.0283-.1359.0381-.2006l.0003-.002c.0101-.0664.0196-.1289.0358-.1896.0015-.0056.0042-.0159.0078-.029zm-.3448.8602c.0006-.0012.0012-.0024.0017-.0035.002-.0044.0026-.0066.0027-.007.0001-.0001 0 0 0 0 .0165-.0814.0407-.1602.0653-.2362.0046-.0142.0091-.0282.0137-.0422.0201-.0618.0397-.1218.056-.183.016-.0601.0254-.1223.0355-.1888l.0002-.0012c.0098-.0649.0202-.134.0384-.2022.0044-.0165.0189-.0701.0327-.1197.0068-.0248.0135-.0488.0187-.0666.0025-.0089.0048-.0167.0066-.0223.0008-.0028.0017-.0057.0026-.0082.0004-.0011.0012-.0033.0023-.0058.0004-.001.0016-.0039.0037-.0073.0009-.0016.0031-.0053.0067-.0095 0 0-.0001.0001 0 0 .0019-.0022.0135-.016.0344-.0207.0227-.0051.0406.003.0494.0083.0086.0054.0143.0116.0172.015.006.007.0102.0144.0127.0191.0055.0104.0109.0233.0159.0361.0103.0263.0221.0611.0334.0952.0056.0172.0113.0346.0166.0509l.0009.003c.005.0154.0096.0297.0138.0425.0045.0137.0083.0249.0113.0332.0015.004.0025.0068.0033.0087.0142.0237.02.0458.0236.0634.0014.0068.0024.0121.0032.0165.0017.0088.0027.0142.0051.0213.0205.0604.0445.1162.0694.1741.0126.0292.0254.0589.0381.09.0366.0897.0695.1852.0793.2914.0017.0182.0092.0444.0231.0789.0135.0337.0312.0709.0505.1104.003.0063.0062.0127.0093.0192.0347.0708.0739.1511.0888.2166.0146.0644.038.126.0634.1926l.0005.0013c.0247.065.0513.1348.0683.2097 0 0 .0002.0006.0006.002.0004.0017.0011.0038.0019.0065.0012.0039.0025.0083.0041.0134.0007.0021.0013.0043.0021.0066.0047.0155.0107.0351.0158.0542.0035.0132.0072.0285.0094.0429.1511.3145.3602.6717.5676.9619.0302.0424.0676.0828.1085.1264.0023.0024.0045.0048.0068.0073.038.0404.0787.0838.1136.1301.0566.0751.1027.1585.1461.2372.0088.016.0175.0317.0262.0472.0527.094.1052.1796.1755.2501.0069.0068.0216.0203.0421.0392.0056.0051.0115.0105.0179.0164.029.0266.0642.0592.0979.0922.0334.0326.0668.0667.0914.0963.0122.0146.0238.0301.0324.0449.0042.0074.0088.0166.0119.0268.0028.0094.0065.0261.0014.0451-.0073.0274-.0274.0422-.0422.049-.0137.0062-.0273.008-.0364.0086-.0187.0013-.0392-.0011-.0556-.0037-.0172-.0027-.0346-.0063-.0482-.0093-.0028-.0006-.0054-.0011-.0078-.0017-.0037-.0008-.0069-.0015-.01-.0021-.0024-.0005-.0044-.0009-.0059-.0012s-.0022-.0004-.0022-.0004c-.0431-.0062-.15-.0381-.2476-.0703-.0043-.0014-.0085-.0028-.0128-.0043.0304.0284.0634.0594.0959.0903.0495.047.0984.0943.1356.1321.0185.0188.0347.0359.0468.0498.006.0068.0118.0137.0165.0202.0023.0032.005.0071.0075.0114.002.0034.0063.0113.0087.0217.0046.0205.0014.0394-.0024.0526-.004.014-.0103.0271-.0177.0382-.0092.0138-.0212.0205-.0275.0233-.0067.0031-.0127.0045-.0162.0051-.007.0013-.0131.0014-.0165.0013-.0074-.0001-.0151-.0009-.0214-.0018-.0133-.0017-.0295-.0048-.0447-.0079-.0297-.0061-.063-.0141-.0731-.0171-.0952-.0291-.1919-.0603-.2865-.091-.0279-.0091-.0563-.014-.0896-.0198-.0111-.0019-.0228-.0039-.0351-.0062-.0218-.004-.0453-.0089-.0692-.0161.0155.0136.0311.0273.047.0411l.0037.0032c.0729.0635.1495.1302.2139.2057l.0014.0016c.0097.0113.0359.042.0564.0719.0101.0147.0226.0345.0292.0541.0029.0087.0083.0272.0033.0483-.0028.012-.009.025-.0204.0359-.0112.0107-.0239.0161-.0349.0186-.0152.0035-.03.0019-.0383.0009-.0102-.0014-.0214-.0036-.0326-.0064-.0225-.0054-.0501-.0138-.0803-.0237-.0605-.0201-.1357-.0482-.2108-.0779s-.1508-.0613-.2126-.0882c-.0525-.0229-.0982-.0439-.124-.0579 0 .0001.0001-.0001 0 0-.0054.0069-.0116.0119-.0136.0135l-.0149-.0189c-.0052-.0004-.0112-.001-.0169-.0019-.0089-.0012-.0216-.0035-.0344-.0089-.011-.0046-.022-.0089-.0331-.0129.0008.0045.0021.0092.0042.0141.0062.0144.0164.0238.0257.0294.0152.0091.0296.0089.0325.0089.0049 0 .0086-.0007.01-.0009.0028-.0005.0044-.0011.0038-.0009-.0028.0009-.0109.0041-.0234.0097-.0244.0108-.052.0245-.0599.0291-.0249.0146-.1001.0659-.1792.1198l-.0068.0047c-.0739.0504-.1501.1024-.1778.1187-.0054.0032-.011.0063-.0167.0093.0058.0093.0078.0177.0085.0207.0019.0089.0017.0168.0016.0194-.0004.0122-.0034.0308-.0074.0523-.0032.017-.0128.0311-.0259.0404-.0011.0036-.0023.0073-.0035.0111-.0091.0291-.019.0618-.0285.093-.0037.012-.0073.0238-.0107.0351-.0117.0384-.0231.0751-.029.0897-.0134.0327-.0507.0484-.0833.035-.0327-.0133-.0484-.0506-.035-.0833.0031-.0076.0122-.0366.0251-.0787.0033-.011.0069-.0226.0105-.0344.0095-.0314.0197-.0649.029-.0946.0058-.0184.0117-.037.0172-.0533-.1056.0306-.2271.043-.3442.0364-.0257-.0015-.0515-.0039-.0773-.0073.0002.0047-.0002.0081-.0003.0094-.001.0091-.004.018-.0051.0215-.0035.0106-.0099.0274-.0189.0501-.0054.0134-.0147.024-.0262.0309-.005.0102-.0102.0207-.0154.0312-.0073.0149-.0147.0298-.0219.0442-.0144.029-.0298.0597-.038.072-.008.012-.0194.0205-.032.0249 0 .0007.0001.0014.0001.0022.0005.0213-.0095.0405-.0254.0525-.0036.022-.0072.0457-.01.0657-.0018.0126-.0033.0235-.0044.0316l-.0013.0097c-.0003.0026-.0004.0037-.0004.0036-.004.0351-.0357.0603-.0707.0563-.001-.0002-.002-.0003-.003-.0004-.0062.0029-.0125.0059-.0185.0088-.006.0028-.0116.0054-.0164.0077-.0067.0067-.015.012-.0246.0153-.0043.0015-.0148.005-.0238.0061-.0019.0003-.0054.0006-.0096.0005-.0031 0-.0129-.0004-.0243-.0053-.0135-.0058-.0352-.0219-.0383-.0523-.0023-.0231.0084-.039.011-.0428.0063-.0091.0137-.0146.0149-.0154.0025-.0019.0048-.0034.0061-.0042.0077-.0048.0217-.0115.0326-.0167.0064-.0031.0142-.0068.0218-.0104.0063-.003.0125-.0059.0176-.0084.0017-.0007.0033-.0015.0049-.0023.0037-.026.0085-.0582.0135-.0861.0025-.0141.0052-.0278.0079-.0394.002-.0088.0058-.0245.0123-.0367.0017-.0033.0061-.0112.014-.0187.006-.0056.0202-.0165.0403-.0179.0005-.0007.0011-.0018.0019-.0033.0019-.0034.0043-.0078.0071-.0133.0056-.0108.0126-.0247.0204-.0403.0066-.0133.0139-.0281.0213-.0431.0095-.0191.019-.0385.0274-.0552.0076-.0152.0147-.0291.0205-.04.0028-.0054.0056-.0105.0081-.0148.0003-.0006.0007-.0013.0012-.0021-.1004-.028-.1926-.0746-.2593-.1448-.0026.0019-.0053.0039-.0079.0058-.0452.0329-.0929.0661-.1325.0937-.0407.0283-.0704.0491-.0827.0588-.0164.0129-.0988.0852-.1799.1568-.0284.0251-.0562.0497-.0803.071-.0098.0086-.019.0168-.0274.0242-.0144.0127-.0264.0233-.0349.0307l-.0099.0088-.0032.0027-.0018.0015c-.0002.0002-.0012.001-.0024.0019-.0004.0003-.0022.0016-.0045.003-.0014.0009-.0056.0031-.0084.0044-.0066.0024-.0364.0041-.0578-.0038-.0241-.0144-.0319-.0375-.0344-.0491-.0028-.0125-.0026-.0245-.0019-.0333.0013-.0182.0059-.0388.0113-.0587.011-.0408.0291-.0916.0481-.141.0292-.0758.0634-.1555.081-.1967.0052-.0122.009-.021.0108-.0253.0023-.0057.0036-.0157.0051-.0376-.025.0265-.0517.0553-.0789.0849-.01.0109-.0201.0219-.0303.033-.0416.0454-.0835.091-.1209.1302-.045.0472-.0888.0907-.1198.1124-.0103.0072-.0443.0264-.0743.0419-.0156.008-.0325.0163-.0469.0222-.0069.0029-.0152.006-.0234.0082-.004.001-.0101.0024-.0172.0029-.0047.0003-.0222.0013-.0401-.0094-.0199-.0119-.0301-.0315-.0321-.0501-.0017-.0152.0021-.0272.0042-.0328.0043-.0116.011-.0212.0149-.0265.0089-.0121.0211-.0253.0316-.0361.011-.0113.0224-.0224.0311-.0307.0112-.0107.0136-.013.0127-.0119.0211-.0237.0463-.0594.0675-.0975.0218-.039.0362-.0747.0404-.0988.0255-.1445.1039-.2819.1829-.409.0151-.0242.0301-.0479.045-.0714.0657-.1039.1277-.2018.1681-.3009.0006-.0013.0016-.0038.0029-.0071-.0816.0409-.1618.0859-.2433.1323-.0147.0084-.0295.0169-.0443.0254-.0735.0421-.1484.0849-.225.1257-.0094.005-.0704.0368-.1308.0632-.0297.0129-.062.0259-.0888.0331-.0125.0034-.0292.0071-.0456.0067-.0082-.0003-.022-.0016-.0362-.0091-.0167-.0087-.0314-.0249-.0365-.0473-.0046-.0205.0023-.0364.0038-.0396.0023-.0055.005-.0095.0062-.0112.0025-.0037.0049-.0063.0058-.0072.0021-.0023.004-.0041.005-.0051.0024-.0021.0052-.0046.0079-.0069.0055-.0048.0133-.0113.0222-.0186.0023-.002.0047-.004.0073-.0061.0168-.014.0375-.0312.0585-.0491.0242-.0207.0481-.0416.0665-.0592.0092-.0088.0163-.0161.0212-.0215.0014-.0017.0025-.0029.0032-.0038.0325-.0779.0847-.1602.1389-.239.0248-.0361.0494-.0706.0735-.1044.0317-.0445.0624-.0876.0913-.131.0296-.0446.0505-.0927.0698-.1454.0065-.0177.0131-.0368.02-.0567.0125-.0361.0259-.0746.0406-.1107.013-.0317.0259-.0629.0387-.0935.1006-.2421.1881-.4526.1758-.7013-.0002-.0034-.0004-.0066-.0005-.0099-.0025-.0497-.0047-.0947-.0123-.1378-.0024-.0022-.0042-.0042-.0054-.0055-.0066-.0077-.0101-.0154-.0114-.0184-.0017-.0038-.0029-.0074-.0037-.0097-.001-.0032-.0024-.0078-.003-.01-.0002-.0005-.0003-.0008-.0003-.001-.0004-.0013-.0006-.0018-.0006-.0018 0 .0001.0008.0022.0022.005l.1058-.055c-.0091-.0073-.0248-.0159-.0466-.0133-.0281.0035-.0414.0232-.0437.0266-.0073.0111-.0091.0218-.0093.0227-.0005.0029-.0006.005-.0007.0054 0-.0034-.0003-.0101-.0008-.0185-.0009-.0166-.0027-.0404-.0051-.0695-.0041-.0491-.0098-.1118-.0159-.178-.0011-.0121-.0022-.0244-.0033-.0367-.0072-.0792-.0145-.1607-.0197-.2267-.0026-.033-.0046-.0625-.0059-.0862-.0011-.022-.0019-.0432-.0007-.0569.0295-.359.0731-.7002.1668-1.0518.0077-.0288.0196-.0775.0317-.1269.0033-.0136.0067-.0273.01-.0406.0075-.0304.0146-.059.0201-.08.0027-.0105.0052-.0197.0072-.0266.001-.0033.0022-.0071.0035-.0106.0005-.0015.0018-.0048.0036-.0085.0008-.0016.0029-.0056.0062-.01.0017-.0023.0048-.0062.0095-.0102.0042-.0037.0136-.0109.0278-.0141.0344-.0078.0577.0133.0619.0172.0076.0069.0131.0146.0164.0197.0071.0107.0138.0241.0198.037.0123.0266.0262.0618.0392.0969.02.0536.0398.1116.0509.1442.0035.0101.0061.0177.0076.0221.0456.1293.0979.2627.1546.3863.0123.0269.0263.05.0421.076.0057.0093.0116.0191.0177.0295.0194.033.0395.0705.0523.1154.0068-.0022.0149-.0037.0239-.0032zm-.0996 3.5436c.0789.0756.2141.1196.3656.1282.1612.0092.3221-.023.4205-.0808.0236-.0138.0981-.0646.1772-.1186l.0019-.0013c.0755-.0516.155-.1059.1846-.1232.0007-.0004.0015-.0009.0023-.0013-.0378-.0105-.0766-.0191-.1164-.0268-.0009.001-.0018.002-.0027.0029-.1605.1616-.473.3173-.7875.2464-.0057-.0012-.0107-.0013-.0211-.0014-.005 0-.0113-.0001-.0194-.0003-.0197-.0005-.0519-.0023-.0825-.0205-.0193-.0116-.0316-.0279-.0392-.0408-.0106-.0037-.0202-.0102-.0275-.0189-.0013.0018-.0024.0033-.0035.0047-.0109.0141-.0261.0288-.0415.0423-.0034.0031-.007.0062-.0108.0094zm.1554-.1593c.0181.0168.0275.0348.0334.0471.0014.0029.0025.0052.0034.0069.003.0006.0079.0012.0161.0014.0038.0001.0077.0001.0124.0001.0045.0001.0098.0001.0151.0003.0105.0004.0238.0012.0378.0044.2231.0503.4538-.0388.6026-.1538-.0675-.0126-.1361-.0274-.201-.0499-.0028.0001-.0068.0005-.0123.0011-.0144.0019-.0344.0054-.0588.0105-.0486.0102-.1107.0257-.1738.0429-.063.0171-.126.0356-.1763.0516-.0251.008-.0467.0153-.0632.0214-.0083.003-.0149.0056-.0199.0077-.0043.0018-.0063.0028-.0068.0031-.0001 0-.0001 0 0 0-.0029.0017-.0058.0034-.0087.0052zm.9372-2.5917.0041-.0183c-.0107-.0025-.0275-.0027-.044.0077-.0152.0095-.0214.0226-.0237.0289-.0022.006-.0027.0106-.0027.0129zm-.6126-1.0067c-.0105.019-.0224.0401-.0358.0627l-.1097-.0656c.0213-.0356.0378-.0664.0519-.0927.0043-.008.0084-.0157.0124-.0229.008-.0147.0162-.0293.0243-.041.004-.006.0091-.0128.0152-.019.0058-.0059.0154-.0146.0292-.0203.0158-.0065.0352-.0081.0545-.0006.0171.0067.028.0183.034.0263.0114.0149.0185.0336.0233.0484.0106.0321.0221.082.0372.1484l-.1246.0282c-.0044-.0193-.0084-.0365-.0119-.0519zm-.7603.2614c-.003.0118-.0079.0282-.0177.0429-.002.003-.006.0086-.0123.014-.0061.0052-.0192.0146-.0386.0157-.0217.0014-.0384-.0081-.0483-.0175-.0087-.0082-.013-.0168-.0149-.0209-.0037-.0083-.005-.0158-.0054-.0182-.0007-.0036-.001-.0068-.0012-.009-.0003-.003-.0006-.0071-.0007-.0095-.0001-.0007-.0001-.0013-.0001-.0016-.0002-.0016-.0002-.0023-.0002-.0023s-.0002.0019.0003.0039l.1173-.027c-.002-.0026-.0044-.0055-.0074-.0083-.0095-.0091-.0259-.0184-.0471-.0171-.019.0012-.0316.0103-.0372.015-.0058.005-.0092.0099-.0106.0121-.0012.0017-.0016.0027-.0016.0027s.0006-.0016.0016-.0055c.0015-.0061.003-.0146.0044-.0257.0014-.0101.0025-.0211.0038-.0332l.0003-.0029c.0014-.0129.0029-.0269.0048-.0404.0034-.0235.0092-.0585.0255-.0848.0091-.0147.0261-.0341.0545-.0409.0283-.0068.053.0024.0699.0124.0286.0172.0443.0437.0534.0648.0092.0213.015.0446.0192.0634.0013.0058.0025.0111.0036.0161.0029.0132.0053.0241.0083.0345.0037.0125.0064.0172.0068.0181.0001.0001.0001 0 0 0l-.0971.083c-.0147-.0172-.0234-.0376-.0291-.0547-.0012.007-.0026.0141-.0042.0209zm.7123.289c-.0363.0257-.0809.0489-.1328.0536l-.0115-.1272c.0206-.0019.0436-.0117.0707-.0308.0271-.0192.0534-.044.0819-.0712.001-.001.002-.0019.003-.0029.0257-.0246.0556-.053.0855-.0724.0311-.0201.0782-.0406.13-.0195l-.0482.1183c.0013.0006.0023.0007.003.0008-.0018.0003-.0065.0019-.0154.0077-.0188.0121-.0403.0323-.0697.0604l-.001.001c-.0271.0258-.0597.057-.0955.0822zm.3138.2079c.0551.0777.0915.1794.1041.2351.0042.0184.0027.0361.0006.0493-.0022.0138-.006.0274-.0099.0392-.0061.0189-.0142.0383-.0198.0518-.0013.003-.0025.0058-.0034.0082-.0283.0691-.0818.1097-.1315.1388-.059.0346-.1192.0424-.1746.0217-.0526-.0196-.0907-.0611-.117-.1044-.0521-.0856-.0744-.2041-.0646-.2895.011-.0968.062-.1814.1422-.2338.0546-.0352.1123-.0378.1635-.015.0466.0208.0831.06.1104.0986zm-.2042.0234c-.0471.031-.0781.0811-.085.1413-.0066.0584.0101.1483.0468.2085.018.0296.0367.0452.0526.0512.0131.0049.0331.0067.0653-.0122.0073-.0043.014-.0085.0203-.0127-.0556-.0116-.1014-.0555-.1146-.1136-.0178-.0787.0294-.1596.1101-.1779.0081-.0018.0162-.0029.0241-.0034-.0062-.0107-.0128-.021-.0196-.0307-.0217-.0306-.042-.0485-.0583-.0558-.0116-.0051-.0232-.0065-.0417.0053zm-.6528-.0571c-.0758-.0057-.1407-.0076-.1845.0097l-.0472-.1187c.076-.0302.172-.0236.2412-.0185.0051.0004.0102.0008.0151.0012.0311.0023.057.0043.0789.0042.0124-.0001.0212-.0008.0271-.0019.0035-.0006.0049-.0012.0049-.0012s-.001.0004-.0025.0015l.073.1048c-.0173.0121-.0365.0177-.0523.0206-.0162.003-.0333.0039-.0496.004-.0275.0001-.0594-.0023-.0898-.0046-.0048-.0004-.0096-.0008-.0143-.0011zm.2368.5027c-.0031.0702-.0182.1429-.0542.1971-.0164.0247-.0421.0391-.0545.0461-.0059.0033-.0106.0058-.0143.0079-.0079.0042-.0119.0064-.0154.0092-.0287.0226-.0601.0381-.0939.0422-.0348.0043-.0667-.0043-.0936-.0208-.0503-.0307-.0821-.0877-.1024-.1402-.0213-.0551-.0345-.1179-.0404-.1752-.0057-.0559-.0051-.1133.0063-.1558.0227-.0853.0568-.1792.139-.2419.0038-.0029.008-.0054.0124-.0074.035-.0158.0714-.0199.1069-.0111.0345.0085.0631.0281.0859.0513.0446.0453.0748.1125.0935.1803.019.0693.0279.1465.0247.2183zm-.2522-.3247c-.0422.0354-.0662.0907-.0868.1681-.0027.0101-.0046.0248-.0052.043.0205-.0451.0614-.0803.1131-.092.0263-.006.0526-.0053.0772.001-.0154-.0479-.0353-.084-.0554-.1044-.0109-.0111-.0196-.0154-.0255-.0169-.0041-.001-.0096-.0014-.0174.0012zm.1018.4322c-.003.0009-.0061.0017-.0091.0024-.0624.0141-.1254-.0093-.1633-.0562.004.0146.0086.0286.0137.0418.0174.045.0363.0689.0498.0772.0049.003.0081.0034.0116.003.0044-.0005.0143-.0033.0302-.0158.009-.0071.0185-.0128.026-.017.0038-.0022.0077-.0043.011-.0061.0032-.0017.0067-.0036.0094-.0051.0059-.0033.0094-.0055.0115-.0072.0001 0 0 .0001 0 0 .0032-.005.0064-.0108.0092-.017zm.7133-.3273c-.003-.0131-.0146-.0185-.0232-.0166-.0085.002-.0167.0118-.0137.025s.0147.0186.0232.0166c.0085-.0019.0167-.0118.0137-.025zm-.7236.1641c-.0039-.0174-.0221-.0298-.0421-.0253-.02.0046-.031.0236-.0271.041.0039.0173.0221.0298.0421.0252.02-.0045.031-.0235.0271-.0409zm.4674.8046c-.0003-.0001.0002 0 0 0 .0043.0009.0119.003.0208.0066.0177.007.0391.0184.0592.032.0193.0131.0347.0264.0444.0377-.0045.002-.0102.0043-.0174.0068-.0066.0023-.0133.0044-.0209.0068-.0071.0023-.0153.0049-.0231.0077-.0076.0028-.0171.0066-.0262.0119-.0084.0049-.0225.0144-.0325.0311m-.1916.0521c-.0004-.0016-.0008-.0034-.0012-.0056-.0025-.0142-.0021-.0339.0019-.0552.004-.0212.0108-.0394.0177-.051.0126-.0211.0356-.0382.0692-.0523.032-.0133.067-.0212.0997-.0286-.0003-.0001.0002 0 0 0m.2252-.0024c.0176.0215.0426.0604.0323.1063-.0078.0347-.0299.0576-.0503.0718-.019.0133-.0403.0218-.0568.0276.0036.0057.0062.0113.008.016.0042.0112.0057.022.0063.0303.0012.0164-.0006.0334-.0027.0467-.0023.014-.0054.0276-.0084.0384-.0009.0033-.0018.0065-.0028.0096.0001.0009.0002.0019.0003.0029.0012.0108.0027.0261.0037.0417.0009.0149.0015.0334-.0002.0498-.0008.0078-.0026.0195-.0073.0311-.0039.0096-.0173.0367-.0508.0443-.0171.0039-.0327.0019-.0418.0003-.0099-.0018-.0194-.0045-.0257-.0063-.0011-.0003-.0021-.0006-.003-.0009-.0015-.0005-.0028-.0008-.004-.0012-.007.0023-.016.0052-.0258.0077-.0106.0028-.0243.0058-.0379.0069-.0069.0006-.0155.0008-.0247-.0003-.0086-.0011-.0224-.004-.0359-.013-.016-.0106-.0257-.0247-.0317-.0356-.0061-.0111-.0103-.0227-.0134-.0327-.0046-.0147-.0085-.0324-.012-.048-.0011-.0046-.002-.009-.003-.013-.0055-.0238-.011-.0425-.0172-.0566-.0259.0031-.0523-.001-.0766-.0163-.0381-.0241-.0527-.0649-.0582-.096-.0109-.0626.0049-.1418.0357-.1935.0323-.0544.0837-.0856.1297-.1049.0427-.0178.0874-.0278.1186-.0349.0024-.0005.0046-.001.0069-.0015.0188-.0043.037-.002.0498.0006.014.0029.0283.0075.0419.013.0272.0109.0567.0268.0835.045.0265.0179.0535.0401.0735.0647zm-.1893.5036c.0001 0 .0003-.0001 0 0zm.0677-.3719c-.0005-.0005-.0006-.0005 0 0z"/></g></g></svg>