<svg fill="none" height="64" viewBox="0 0 64 64" width="64" xmlns="http://www.w3.org/2000/svg"><g fill="#000"><g clip-rule="evenodd" fill-rule="evenodd"><path d="m35.137 13.8436h6.9509v9.4588h-6.9509zm3.5299 1.2809c-.6137-.6196-1.3105-.5809-1.6302-.4841 0 1.8976.1252 3.4297.9589 5.2277-.7378-.2491-2.0392.1033-1.6301 1.5489.541 1.9117 4.5068 1.3622 4.5068-.5809 0-1.4185-1.2939-1.9366-2.3013-1.0649-.8337-1.0235-1.1507-2.7138-1.1507-4.4531.0959.0645.4027.2904.863.6776.4603.3873.895.4841 1.0548.4841.032-.1936-.0575-.7357-.6712-1.3553z"/><path d="m34.7534 13.8436h-6.9041v9.4588h6.9041zm-5.0156.7968c.3197-.0968 1.0165-.1355 1.6302.4841s.7032 1.1617.6712 1.3553c-.1598 0-.5945-.0968-1.0548-.4841-.4603-.3872-.7671-.6131-.863-.6776 0 1.7393.317 3.4296 1.1507 4.4531 1.0074-.8717 2.3013-.3536 2.3013 1.0649 0 1.9431-3.9658 2.4926-4.5068.5809-.4091-1.4456.8923-1.798 1.6301-1.5489-.8337-1.798-.9589-3.3301-.9589-5.2277z"/><path d="m27.4658 23.3024v-9.4588h-6.9229v9.4588zm-.7946-4.6515c-.4795 2.033-2.3014 3.6787-5.5342 2.9043.0291-2.0183.1336-3.7136.9314-4.6468 1.0773-1.2601 3.048-1.3698 4.3151-1.2585-.0427.5179.0688.9204.1793 1.3189.1372.4954.2729.9847.1084 1.6821z"/></g><path d="m20.8096 46.8526-2.5493 2.5737h26.5125l-2.5493-2.5737z"/><path d="m45.0815 31.9254c0-.2843-.2282-.5148-.5098-.5148s-.5099.2305-.5099.5148v5.1473c0 .2843.2283.5148.5099.5148s.5098-.2305.5098-.5148z"/><path clip-rule="evenodd" d="m29 9.2771v-7.2771h5.4003v7.2771h12.2108v16.9862l1.5296 3.0884v9.7106l4.3337-2.3865v-14.9823c-1.5066-.4222-2.6124-1.8169-2.6124-3.4723 0-1.99 1.5979-3.6031 3.569-3.6031s3.569 1.6131 3.569 3.6031c0 1.793-1.2973 3.2802-2.996 3.5569v15.8144l-5.8633 3.2288v11.1787h-33.1407v-22.6483l1.5296-3.0884v-16.9862zm.5099-6.76237h4.3805v3.16396h-4.3805zm-9.4113 21.23637v-10.3561h22.4336v10.3561zm-2.6054 20.2634h28v5.6149h-28zm27.0785-13.1186c-.5632 0-1.0197.4609-1.0197 1.0295v5.1473c0 .5686.4565 1.0295 1.0197 1.0295.5631 0 1.0197-.4609 1.0197-1.0295v-5.1473c0-.5686-.4566-1.0295-1.0197-1.0295z" fill-rule="evenodd"/></g></svg>