<svg fill="none" height="64" viewBox="0 0 64 64" width="64" xmlns="http://www.w3.org/2000/svg"><path clip-rule="evenodd" d="m20.0875 52.9266 4.7599-20.5834-2.9589 1.2865 1.8011-4.1167h-4.7599l2.9588-3.2161-4.8885-1.1578 4.374-2.4443-4.374-2.3156 4.8885-1.1578-3.3447-3.3448 4.6312.2573-1.801-4.2454 4.1166 1.5438-.2573-4.63126 3.3448 2.83026 1.1578-4.37401 2.573 3.73071 2.4442-3.988.9005 4.6313 3.4735-3.47349-.2573 4.75989 4.374-1.801-1.8011 4.3739 4.6313-.5146-3.0875 3.8594 4.6312.6432-4.1167 2.573 4.374 2.3156-4.8885 1.0292 3.3448 3.3447-4.374.2573 1.801 3.9881-4.6312-1.5438 8.7479 17.2386-7.3328-3.6021-2.3156 7.0755-5.0172-11.1922-2.7016 15.4375-4.5026-7.3328zm14.1511-39.7516.1286-2.7016.5146 2.7016zm-3.2162-2.187-.1286 2.187h.9005zm-2.9589 2.9589-.6432-1.6724 1.5438 1.4151zm11.8355 8.6193c0 4.0498-3.283 7.3328-7.3328 7.3328s-7.3329-3.283-7.3329-7.3328 3.2831-7.3329 7.3329-7.3329 7.3328 3.2831 7.3328 7.3329zm1.0291 0c0 4.6182-3.7438 8.3619-8.3619 8.3619-4.6182 0-8.362-3.7437-8.362-8.3619s3.7438-8.362 8.362-8.362c4.6181 0 8.3619 3.7438 8.3619 8.362zm-2.7015 25.3432-3.2162-8.1047 2.187 3.3448-1.9297-5.1458 3.2162 4.6312-2.0584-4.8885 3.0875 4.6312-1.6724-4.6312 3.0875 4.2453-2.0583-4.7599 2.9589 4.3739-2.7016-7.0755 5.4031 10.8063-4.6312-2.3157zm-6.3037-30.1031-2.187 1.1578.5146.9005 1.4151-.1286.386 6.0463-1.2865.2573.2573 1.0292 4.7599-.6433-.2573-1.1578h-1.0292l-1.0291-7.4614zm-9.7771 30.875 3.7308-13.3792-1.5438 8.362 2.7016-7.7188-.9005 7.7188 2.1869-7.2042-.9005 7.5901 2.187-6.8182-1.2865 8.2333 2.8303-7.7187-1.5438 8.1047 2.8302-7.4615-2.7016 12.9932-2.9588-5.2745zm2.4443-30.2318-2.3156-1.1578 2.3156.2573zm0-3.8594 1.4151 1.4151.6432-.7719zm13.2505-2.5729-1.0291 2.187.7718.2573zm1.1578 3.4734 2.187-1.801-1.0291 2.3156zm1.9297 2.3157.6433.6432 1.3665-1.6481zm.9006 2.5729h2.1869l-2.1869.9005zm2.9588 3.7307-2.8302-.2573v.7719zm-3.6021 2.3156 2.0584 1.1578-2.4443-.2572zm-2.187 3.4735 2.8303.9005-1.8011-1.801zm-1.1578 1.0291.5146 1.6724-1.5437-1.6724zm-2.8302 3.4735-.3859-2.4443h-1.0292zm-3.4734-1.9297-.7719 2.7016-.2573-2.7016zm-3.8594.9005 1.0292-1.801-.7719-.1287zm-1.2864-3.3448-1.9297 1.4151 1.5437-1.801zm-3.7308-1.9297 2.0584-.7718v-.9006zm.7719-3.6021-2.0583.2573 2.1869-1.2864zm-2.8302-3.7307 2.8302.2573v-.7719z" fill="#000" fill-rule="evenodd"/></svg>