<svg width="16" height="16" viewBox="0 0 16 16" fill="none" xmlns="http://www.w3.org/2000/svg">
<path fill-rule="evenodd" clip-rule="evenodd" d="M9.58579 2H3V15H13V5.41421L9.58579 2ZM10 1H2V16H14V5L10 1Z" fill="black"/>
<path fill-rule="evenodd" clip-rule="evenodd" d="M8 4H4V3H8V4Z" fill="black"/>
<path fill-rule="evenodd" clip-rule="evenodd" d="M8 6H4V5H8V6Z" fill="black"/>
<path fill-rule="evenodd" clip-rule="evenodd" d="M12 8H4V7H12V8Z" fill="black"/>
<path fill-rule="evenodd" clip-rule="evenodd" d="M12 10H4V9H12V10Z" fill="black"/>
<path fill-rule="evenodd" clip-rule="evenodd" d="M8 12H4V11H8V12Z" fill="black"/>
<path fill-rule="evenodd" clip-rule="evenodd" d="M8 14H4V13H8V14Z" fill="black"/>
<path fill-rule="evenodd" clip-rule="evenodd" d="M11 12H10V13H11V12ZM9 11V14H12V11H9Z" fill="black"/>
<path fill-rule="evenodd" clip-rule="evenodd" d="M9 6V2H10V6H9Z" fill="black"/>
<path fill-rule="evenodd" clip-rule="evenodd" d="M13 6H10V5H13V6Z" fill="black"/>
</svg>
