<svg width="24" height="24" fill="none" xmlns="http://www.w3.org/2000/svg">
  <path d="M12.107 22.814c5.972 0 10.814-4.841 10.814-10.814 0-5.972-4.842-10.813-10.814-10.813S1.293 6.028 1.293 12c0 5.973 4.842 10.814 10.814 10.814Z" fill="#fff"/>
  <path d="M11.978 0c3.357 0 6.214 1.172 8.571 3.514a11.54 11.54 0 0 1 2.572 3.868c.585 1.45.879 2.99.879 4.618 0 1.643-.29 3.182-.868 4.617a11.016 11.016 0 0 1-2.56 3.804 12.333 12.333 0 0 1-3.986 2.657 11.947 11.947 0 0 1-4.607.922 11.66 11.66 0 0 1-4.554-.911 12.07 12.07 0 0 1-3.9-2.635A11.952 11.952 0 0 1 .9 16.564C.3 15.121 0 13.6 0 12c0-1.586.303-3.11.91-4.575a12.05 12.05 0 0 1 2.647-3.932C5.843 1.165 8.649 0 11.977 0Zm.043 2.164c-2.742 0-5.05.958-6.921 2.872A10.317 10.317 0 0 0 2.925 8.26 9.452 9.452 0 0 0 2.164 12c0 1.285.253 2.525.76 3.717A9.942 9.942 0 0 0 5.1 18.91a9.89 9.89 0 0 0 3.193 2.143 9.62 9.62 0 0 0 3.728.74c1.286 0 2.532-.25 3.74-.75a10.364 10.364 0 0 0 3.268-2.164c1.87-1.829 2.806-4.121 2.806-6.88a9.854 9.854 0 0 0-.729-3.77 9.596 9.596 0 0 0-2.12-3.172c-1.93-1.929-4.25-2.893-6.965-2.893Zm-.15 7.844-1.608.836c-.171-.357-.382-.608-.631-.75-.25-.143-.483-.215-.697-.215-1.071 0-1.608.707-1.608 2.122 0 .643.136 1.156.407 1.542.272.386.672.58 1.2.58.7 0 1.194-.344 1.48-1.03l1.478.75a3.526 3.526 0 0 1-3.15 1.886c-1.071 0-1.936-.328-2.593-.986-.657-.657-.986-1.57-.986-2.742 0-1.143.333-2.05.997-2.721.664-.671 1.503-1.007 2.518-1.007 1.486-.001 2.55.577 3.193 1.735Zm6.921 0-1.586.836c-.17-.357-.382-.608-.632-.75a1.457 1.457 0 0 0-.718-.215c-1.07 0-1.607.707-1.607 2.122 0 .643.136 1.156.407 1.542.271.386.671.58 1.2.58.7 0 1.193-.344 1.478-1.03l1.5.75a3.685 3.685 0 0 1-1.328 1.383 3.462 3.462 0 0 1-1.82.503c-1.087 0-1.954-.328-2.604-.986-.65-.657-.976-1.57-.976-2.742 0-1.143.332-2.05.997-2.721.664-.671 1.503-1.007 2.518-1.007 1.485-.001 2.543.577 3.171 1.735Z" fill="#000"/>
</svg>
