<svg fill="none" height="64" viewBox="0 0 64 64" width="64" xmlns="http://www.w3.org/2000/svg"><path clip-rule="evenodd" d="m15.0974 30.46c0-.857 1.4773-1.347 2.0984-1.551.1941-.082.3491-.286.3491-.49 0-.205-.116-.409-.428-.531-.6212-.246-2.1355-1.674-2.1355-3.471 0-1.715 1.0882-2.492 1.9424-3.513.3491-.449.5431-1.144.5431-1.919 0-2.981-2.4075-4.002-3.2237-4.206-1.2042-.327-1.2042-.531-1.2042-2.533 0-1.184.116-1.96.9712-1.96 2.4085 0 14.3739-.286 17.0544-.286 2.7576 0 16.1993.286 19.2289.286.3501 0 .7771 0 .7771 2.777 0 1.307-.116 1.552-1.1262 1.675-1.2052.163-3.4577 1.592-3.4577 3.838 0 .817.2331 1.593.5822 2.124.545.817 1.3992 2.002 1.3992 3.227 0 1.51-1.0102 2.899-1.9433 3.675-.1551.164-.2321.286-.2321.408 0 .163.077.287.3101.328.8941.203 2.0974.571 2.0974 1.552 0 .979-1.0863 1.673-2.0575 1.878-.195.041-.35.122-.35.245 0 .081.116.203.4271.368.8542.449 1.6703 1.388 1.6703 3.308 0 2.082-1.1652 2.981-1.9814 4.165-.2321.327-.35 1.021-.35 1.756 0 3.921 2.7975 4.411 3.8857 4.411 1.1262 0 1.1262.694 1.1262 2.777 0 1.347-.195 1.634-2.0203 1.919-1.3603.205-13.0137.205-23.3078.205-2.9916 0-10.6831-.205-11.1882-.205-1.5543 0-1.5543-1.225-1.5543-2.287s.039-2.45 1.0492-2.736c1.1652-.326 3.3017-1.307 3.3017-3.962 0-.448-.078-.898-.3501-1.225-.7381-.938-2.0965-1.96-2.0965-3.92 0-1.716 1.2813-3.145 1.9415-3.472.35-.163.5441-.407.5441-.653 0-.163-.117-.285-.3491-.368-.4661-.163-1.9434-.735-1.9434-1.634zm.2721-17.846c0 .94 7.3424.94 11.1492.94 18.3747 0 20.5502-.205 21.5213-.368.4671-.082.6992-.327.6992-.572 0-.246-.2321-.49-.6992-.572-2.4864-.408-15.6551-.449-17.4035-.449-3.5737 0-12.5094.081-14.5289.449-.5051.082-.7381.326-.7381.572zm15.9281 36.878c.6982 0 13.9069-.122 16.3553-.49.4652-.082.6982-.326.6982-.572 0-.244-.233-.449-.6982-.531-1.7103-.285-7.3815-.326-21.5232-.326-3.9229 0-10.3721 0-10.3721.898 0 .205.233.449.7381.531 2.1755.368 11.8484.49 14.8019.49zm-11.8493-12.946c0-.94-.6601-1.512-1.2822-1.512-.5812 0-1.3593.572-1.3593 1.512 0 .98.7781 1.674 1.3992 1.674.5822 0 1.2423-.694 1.2423-1.674zm.117-12.251c0-.818-.7381-1.798-1.2822-1.798-.5432 0-1.3213.939-1.3213 1.798 0 1.06.6602 1.673 1.3213 1.673.6601 0 1.2822-.613 1.2822-1.673zm2.0584.244c0 1.715-1.3212 2.94-2.0584 3.308-.2331.123-.3891.326-.3891.531 0 .163.079.367.3111.491.5051.285 2.0204.775 2.0204 1.674 0 .898-1.4763 1.429-2.2144 1.592-.2721.042-.3501.205-.3501.368 0 .205.1551.449.3891.612 1.0881.735 1.8253 1.919 1.8253 3.431 0 2.164-1.3602 3.267-1.8643 4.043-.2331.368-.3501.899-.3501 1.511 0 2.737 2.4485 4.37 3.6137 4.37.155 0 .2321-.081.2321-.286 0-.326-.3871-1.96-.3871-2.328 0-1.756.4651-3.839 4.3508-7.351 1.2043-1.143 3.1856-2.899 3.1856-3.39 0-.531-2.9145-1.837-2.9145-2.45 0-.245.1551-.531.4661-.736.6221-.407 1.4763-.653 2.1365-1.102.233-.163.349-.367.349-.572 0-.204-.116-.408-.4261-.613-2.6415-1.796-6.7603-6.043-6.7603-10.128 0-.285.467-1.551.467-1.878 0-.163-.117-.245-.273-.245-1.1652 0-3.6507 1.675-3.6507 3.39 0 .775.233 1.756.6211 2.205.7382.898 1.6703 1.838 1.6703 3.553zm17.6376-7.514c0-.899-.7762-2.246-1.5543-2.246-.8162 0-2.0975 1.265-3.1857 1.756-1.0492.49-1.5923.612-2.6805.612-1.0483 0-1.6314-.164-2.6025-.572-1.0102-.408-2.0984-1.225-2.8746-1.225-.9322 0-1.7864 1.389-1.7864 2.328 0 1.715 3.1457 4.574 7.2635 4.574 5.05 0 7.4205-3.593 7.4205-5.227zm-14.568 24.912c0 .45.039 1.021.3491 1.021.156 0 .3111-.164.4661-.408.273-.45.7772-.899 1.4383-1.308.6211-.408 1.6703-.408 2.2135-.735.544-.368 1.6322-1.674 1.6322-3.267 0-.449 0-1.756-.3491-1.756-.0789 0-3.1485 2.165-4.1577 3.226-1.3593 1.471-1.5924 2.696-1.5924 3.227zm7.6526-6.372c-.1551 0-.2711.164-.2711.328 0 .203.2321 3.961 1.9414 4.451 3.0306.898 3.7298 2.574 3.7298 2.574.077.244.194.366.3101.366.272 0 .505-1.021.505-1.347 0-.531.0001-1.43-1.6703-3.267-.9312-1.021-3.8848-3.105-4.5449-3.105zm11.6933 6.045c0-.653-.156-1.266-.4661-1.797-.8161-1.43-1.7863-1.878-1.7863-4.084 0-1.633.8151-2.941 1.9024-3.389.389-.124.5831-.287.5831-.409s-.1551-.245-.5441-.327c-.8152-.163-1.9414-.776-1.9414-1.675 0-.897 1.2812-1.632 2.1354-1.674.4271-.041.7772-.082.7772-.285 0-.082-.0771-.204-.2721-.368-1.0882-.857-2.2914-1.756-2.2914-3.635 0-.939.35-2.083 1.1652-2.981.6611-.695 1.0482-1.757 1.0482-2.736 0-1.961-1.6703-3.554-2.9126-3.554-.3111 0-.4661.164-.4661.49 0 .246.1931 1.308.1931 1.512 0 3.186-2.3305 6.126-4.2329 8.128-.5841.611-3.8068 3.429-3.8068 3.634 0 .204 3.0287 1.51 3.0287 2.124 0 .694-3.4178 2.041-3.4178 2.654 0 .327 2.4466 2.205 3.7298 3.226 2.4075 1.838 4.1558 3.921 4.1558 6.454 0 .979-.194 1.919-.6991 2.45-.194.203-.2711.407-.2711.531 0 .244.2711.366.5822.366.8542 0 2.2534-1.265 2.6805-1.756.7762-.897 1.1262-1.919 1.1262-2.899zm2.3695-5.799c0-.94-.6211-1.511-1.2423-1.511-.6221 0-1.3602.571-1.3602 1.511 0 .98.7381 1.674 1.3602 1.674.6212 0 1.2423-.694 1.2423-1.674zm.234-11.966c0-.94-.7391-1.837-1.2832-1.837-.4661 0-1.2813.897-1.2813 1.837 0 1.061.6212 1.551 1.2813 1.551.6602 0 1.2832-.49 1.2832-1.551z" fill="#000" fill-rule="evenodd"/></svg>